<?xml version="1.0" encoding="utf-8"?>
<!-- Generator: Adobe Illustrator 23.0.5, SVG Export Plug-In . SVG Version: 6.00 Build 0)  -->
<svg version="1.1" id="Capa_1" xmlns="http://www.w3.org/2000/svg" xmlns:xlink="http://www.w3.org/1999/xlink" x="0px" y="0px"
	 viewBox="0 0 1208.5 209.9" style="enable-background:new 0 0 1208.5 209.9;" xml:space="preserve">
<style type="text/css">
	.st0{fill:#F65910;}
	.st1{fill:#FFFFFF;}
</style>
<g>
	<g>
		<g>
			<path class="st0" d="M271,209.9c-21.9,0-43.7-8.3-60.4-25c-0.1-0.1-0.2-0.2-0.3-0.3l-92.5-92.5c-17.9-17.9-47.1-17.9-65,0
				c-8.7,8.7-13.5,20.2-13.5,32.5c0,12.3,4.8,23.8,13.5,32.5c17.9,17.9,47.1,17.9,65,0l17-17l27.9,27.9l-17,17
				c-33.3,33.3-87.4,33.3-120.7,0C-8.3,151.7-8.3,97.5,25,64.2c16.1-16.1,37.6-25,60.4-25c22.8,0,44.2,8.9,60.4,25l92.8,92.8
				c0.1,0.1,0.2,0.2,0.3,0.3c17.9,17.6,46.9,17.5,64.7-0.3c8.7-8.7,13.5-20.2,13.5-32.5c0-12.3-4.8-23.8-13.5-32.5
				c-17.9-17.9-47.1-17.9-65,0l-15.4,15.4l-27.9-27.9l15.4-15.4c16.1-16.1,37.6-25,60.4-25c22.8,0,44.2,8.9,60.4,25
				c33.3,33.3,33.3,87.4,0,120.7C314.7,201.6,292.9,209.9,271,209.9z"/>
		</g>
	</g>
	<g>
		<path class="st1" d="M558.8,57l-62.4,148H452L389.8,57h44.3l41,100.7L517.5,57H558.8z"/>
		<path class="st1" d="M576.5,57h43v148h-43V57z"/>
		<path class="st1" d="M673.5,202.4c-11.8-3-21.2-6.8-28.1-11.5l14.4-30.9c6.6,4.2,14.6,7.7,24,10.3s18.6,4,27.6,4
			c18.2,0,27.3-4.5,27.3-13.5c0-4.2-2.5-7.3-7.4-9.1c-5-1.8-12.6-3.4-22.9-4.7c-12.1-1.8-22.2-4-30.1-6.3
			c-7.9-2.4-14.8-6.6-20.6-12.7c-5.8-6.1-8.7-14.7-8.7-25.9c0-9.4,2.7-17.7,8.1-25c5.4-7.3,13.3-12.9,23.7-17
			c10.4-4,22.7-6.1,36.8-6.1c10.5,0,20.9,1.1,31.3,3.4c10.4,2.3,19,5.5,25.8,9.5l-14.3,30.6c-13.1-7.4-27.3-11-42.8-11
			c-9.2,0-16.1,1.3-20.7,3.9c-4.6,2.6-6.9,5.9-6.9,9.9c0,4.6,2.5,7.8,7.4,9.7c5,1.8,12.9,3.6,23.7,5.2c12.1,2,22.1,4.2,29.8,6.5
			c7.7,2.3,14.4,6.5,20.1,12.6c5.7,6.1,8.6,14.5,8.6,25.4c0,9.2-2.8,17.4-8.3,24.6c-5.5,7.2-13.6,12.7-24.1,16.7
			c-10.6,3.9-23.1,5.9-37.7,5.9C697.3,207,685.3,205.5,673.5,202.4z"/>
		<path class="st1" d="M955.5,57v148h-40v-17.6c-5.7,6.4-12.6,11.3-20.5,14.7c-7.9,3.4-16.5,5.1-25.8,5.1
			c-19.6,0-35.1-5.6-46.5-16.8c-11.5-11.2-17.2-27.8-17.2-49.8V57h43v77.5c0,23.9,10,35.9,29.9,35.9c10.3,0,18.5-3.4,24.7-10.1
			c6.2-6.7,9.3-16.7,9.3-29.9V57H955.5z"/>
		<path class="st1" d="M1108.1,71c12.2,10.9,18.4,27.4,18.4,49.4V205h-40v-18.4c-8,13.8-23,20.6-44.9,20.6
			c-11.3,0-21.1-1.9-29.5-5.8c-8.3-3.9-14.7-9.2-19-16c-4.4-6.8-6.6-14.5-6.6-23.1c0-13.8,5.2-24.6,15.5-32.5
			c10.3-7.9,26.3-11.8,47.8-11.8h34c0-9.4-2.8-16.6-8.5-21.6c-5.7-5-14.2-7.6-25.5-7.6c-7.9,0-15.6,1.2-23.2,3.7
			c-7.6,2.5-14,5.8-19.3,10.1l-15.3-30c8-5.7,17.7-10.1,28.9-13.2c11.2-3.1,22.8-4.7,34.7-4.7C1078.4,54.7,1095.9,60.1,1108.1,71z
			 M1072.4,173.2c5.7-3.4,9.7-8.4,12.1-15V143H1055c-17.7,0-26.5,5.8-26.5,17.4c0,5.5,2.2,9.9,6.5,13.1c4.3,3.2,10.2,4.8,17.8,4.8
			C1060.1,178.3,1066.7,176.6,1072.4,173.2z"/>
		<path class="st1" d="M1165.5,0h43v205h-43V0z"/>
	</g>
</g>
</svg>
