<svg width="512" height="204" viewBox="0 0 512 204" fill="none" xmlns="http://www.w3.org/2000/svg">
<path fill-rule="evenodd" clip-rule="evenodd" d="M153.471 52.4759C157.416 54.1105 161 56.5063 164.019 59.5265C167.039 62.5453 169.435 66.1295 171.07 70.0744C172.704 74.0194 173.545 78.2477 173.545 82.5179C173.545 86.7881 172.704 91.0164 171.07 94.9614C169.435 98.9063 167.039 102.491 164.019 105.509L118.92 150.608C114.972 154.556 108.57 154.556 104.622 150.608L59.5233 105.509C53.4257 99.4116 50 91.1413 50 82.5179C50 73.8945 53.4257 65.6242 59.5233 59.5265C65.621 53.4288 73.8913 50.0032 82.5147 50.0032C91.1382 50.0032 99.4084 53.4288 105.506 59.5265L111.771 65.7915L118.036 59.5265C121.055 56.5063 124.639 54.1105 128.584 52.4759C132.529 50.8413 136.757 50 141.028 50C145.298 50 149.526 50.8413 153.471 52.4759ZM94.7909 85.3541C90.1799 92.2695 86.7588 99.2269 86.7588 106.772C86.7588 117.888 93.1235 128.34 102.249 132.394L105.369 127.954C109.136 123.649 115.245 123.647 119.014 127.954L121.563 130.865C130.688 126.81 136.288 117.305 136.288 106.77C136.288 93.687 125.544 85.1517 125.544 85.1517C124.465 84.1293 123.567 84.5383 123.563 86.0098C123.563 86.0098 124.24 98.7404 117.547 98.7404C114.138 98.7404 114.077 95.493 113.989 90.7721C113.877 84.7769 113.721 76.4054 106.606 69.2911C103.803 66.8882 102.677 65.923 102.159 66.1806C100.947 66.7839 103.072 74.0967 94.7909 85.3541ZM124.337 74.5853C121.925 70.8644 117.247 68.7234 115.183 69.081C114.29 69.2351 114.556 69.529 115.244 70.2906C116.148 71.2912 117.782 73.0991 118.478 76.4584C119.706 82.3717 127.705 79.9607 124.337 74.5853Z" fill="#FF6665"/>
<path d="M259.797 86.748C258.066 83.5749 255.686 81.159 252.658 79.5003C249.629 77.8416 246.095 77.0122 242.056 77.0122C237.585 77.0122 233.619 78.0219 230.157 80.0411C226.695 82.0604 223.991 84.9451 222.044 88.6952C220.097 92.4453 219.123 96.7723 219.123 101.676C219.123 106.724 220.097 111.124 222.044 114.874C224.063 118.624 226.84 121.508 230.373 123.528C233.907 125.547 238.018 126.557 242.705 126.557C248.475 126.557 253.198 125.042 256.876 122.013C260.554 118.912 262.97 114.621 264.124 109.14H238.162V97.5655H279.052V110.763C278.043 116.027 275.879 120.895 272.562 125.367C269.244 129.838 264.953 133.444 259.689 136.184C254.496 138.852 248.655 140.187 242.164 140.187C234.881 140.187 228.282 138.564 222.368 135.319C216.527 132.001 211.911 127.422 208.522 121.58C205.205 115.739 203.546 109.104 203.546 101.676C203.546 94.2482 205.205 87.6134 208.522 81.7719C211.911 75.8584 216.527 71.2789 222.368 68.0337C228.282 64.7163 234.845 63.0576 242.056 63.0576C250.566 63.0576 257.958 65.149 264.232 69.3318C270.506 73.4424 274.833 79.2479 277.213 86.748H259.797Z" fill="#FFFFFE"/>
<path d="M340.558 108.275C340.558 110.438 340.414 112.386 340.126 114.116H296.315C296.675 118.443 298.19 121.833 300.858 124.285C303.526 126.737 306.808 127.963 310.702 127.963C316.327 127.963 320.33 125.547 322.709 120.715H339.044C337.313 126.484 333.996 131.244 329.092 134.994C324.188 138.672 318.166 140.511 311.027 140.511C305.257 140.511 300.065 139.249 295.449 136.725C290.906 134.129 287.336 130.487 284.74 125.799C282.216 121.112 280.954 115.703 280.954 109.573C280.954 103.371 282.216 97.9261 284.74 93.2385C287.264 88.5509 290.798 84.9451 295.341 82.421C299.884 79.8969 305.113 78.6349 311.027 78.6349C316.724 78.6349 321.808 79.8609 326.279 82.3128C330.823 84.7648 334.32 88.2625 336.772 92.8058C339.296 97.2771 340.558 102.433 340.558 108.275ZM324.873 103.948C324.801 100.054 323.395 96.9526 320.654 94.6448C317.914 92.265 314.56 91.075 310.594 91.075C306.844 91.075 303.671 92.2289 301.074 94.5366C298.55 96.7723 297 99.9094 296.423 103.948H324.873Z" fill="#FFFFFE"/>
<path d="M379.414 78.743C386.553 78.743 392.323 81.0147 396.722 85.5581C401.121 90.0293 403.32 96.3035 403.32 104.381V139.538H388.176V106.436C388.176 101.676 386.986 98.0343 384.606 95.5102C382.226 92.914 378.981 91.6159 374.87 91.6159C370.688 91.6159 367.37 92.914 364.918 95.5102C362.538 98.0343 361.348 101.676 361.348 106.436V139.538H346.204V79.6084H361.348V87.0725C363.368 84.4763 365.928 82.4571 369.029 81.0147C372.202 79.5003 375.664 78.743 379.414 78.743Z" fill="#FFFFFE"/>
<path d="M427.782 126.773H461.749V139.538H410.258V127.855L444.009 76.7959H410.258V64.0312H461.749V75.7141L427.782 126.773Z" fill="#FFFFFE"/>
</svg>
